<svg id="Layer_1" data-name="Layer 1" xmlns="http://www.w3.org/2000/svg" width="36.331mm" height="14.672mm" viewBox="0 0 102.984 41.591"><defs><style>.cls-1{fill:#3f3a6a;}.cls-2{fill:#c10b25;}.cls-3{fill:#3d1e26;}.cls-4{fill:#706f6f;}</style></defs><title>logo</title><path class="cls-1" d="M29.3,59.7V40.74L40.66,29.676,52.1,40.736V59.7Zm1.919-18.149V57.78l18.966,0V41.55l-9.515-9.2Z" transform="translate(-29.295 -28.811)"/><path class="cls-2" d="M38.288,59.7V40.74L49.653,29.676,61.09,40.736V59.7Zm1.919-18.149V57.78l18.965,0V41.55l-9.514-9.2Z" transform="translate(-29.295 -28.811)"/><path class="cls-3" d="M52.1,57.778H38.288V59.7H52.1V57.778m-6.926-23.74L43.8,35.377l1.38,1.334,1.375-1.339-1.38-1.334" transform="translate(-29.295 -28.811)"/><path class="cls-2" d="M69.921,59.7V46.391h2.822V57.37h5.4V59.7Z" transform="translate(-29.295 -28.811)"/><path class="cls-2" d="M84.393,59.879a5.254,5.254,0,0,1-3.842-1.356,5.135,5.135,0,0,1-1.384-3.841,5.65,5.65,0,0,1,1.279-3.956,4.554,4.554,0,0,1,3.537-1.4,4.482,4.482,0,0,1,3.359,1.228,4.648,4.648,0,0,1,1.2,3.4V55.3H81.981a2.671,2.671,0,0,0,.7,1.848,2.466,2.466,0,0,0,1.839.664,7.583,7.583,0,0,0,1.739-.192,8.7,8.7,0,0,0,1.711-.61v2.148a6.534,6.534,0,0,1-1.557.542A9.865,9.865,0,0,1,84.393,59.879ZM84,51.3a1.761,1.761,0,0,0-1.384.561,2.59,2.59,0,0,0-.574,1.589h3.9a2.314,2.314,0,0,0-.537-1.588A1.818,1.818,0,0,0,84,51.3Z" transform="translate(-29.295 -28.811)"/><path class="cls-2" d="M97.564,59.694l-.373-1.3h-.146a2.934,2.934,0,0,1-1.265,1.1,4.326,4.326,0,0,1-1.866.387,3.553,3.553,0,0,1-2.7-.959,3.863,3.863,0,0,1-.91-2.763V49.518h2.776v5.944a2.853,2.853,0,0,0,.392,1.652,1.424,1.424,0,0,0,1.247.551,1.875,1.875,0,0,0,1.684-.779,4.827,4.827,0,0,0,.519-2.581V49.517h2.777V59.693Z" transform="translate(-29.295 -28.811)"/><path class="cls-2" d="M104.581,59.692,100.7,49.516h2.9l1.966,5.8a10.358,10.358,0,0,1,.41,2.085h.055a9.051,9.051,0,0,1,.41-2.085l1.957-5.8h2.9l-3.878,10.178Z" transform="translate(-29.295 -28.811)"/><path class="cls-2" d="M116.924,59.871a5.251,5.251,0,0,1-3.841-1.356,5.134,5.134,0,0,1-1.384-3.841,5.65,5.65,0,0,1,1.279-3.956,4.555,4.555,0,0,1,3.537-1.4,4.483,4.483,0,0,1,3.359,1.228,4.649,4.649,0,0,1,1.2,3.4v1.347l-6.564,0a2.67,2.67,0,0,0,.7,1.847,2.464,2.464,0,0,0,1.839.664,7.611,7.611,0,0,0,1.739-.192A8.7,8.7,0,0,0,120.5,57v2.149a6.506,6.506,0,0,1-1.556.541A9.767,9.767,0,0,1,116.924,59.871Zm-.391-8.575a1.76,1.76,0,0,0-1.384.56,2.593,2.593,0,0,0-.574,1.589h3.9a2.318,2.318,0,0,0-.537-1.589A1.82,1.82,0,0,0,116.533,51.3Z" transform="translate(-29.295 -28.811)"/><path class="cls-2" d="M132.28,59.685H129.5V53.742a2.856,2.856,0,0,0-.392-1.652,1.423,1.423,0,0,0-1.247-.55,1.875,1.875,0,0,0-1.684.779,4.825,4.825,0,0,0-.519,2.581v4.788h-2.777V49.51h2.121l.373,1.3h.155a2.937,2.937,0,0,1,1.279-1.115,4.351,4.351,0,0,1,1.853-.378,3.56,3.56,0,0,1,2.694.96,3.853,3.853,0,0,1,.919,2.772Z" transform="translate(-29.295 -28.811)"/><path class="cls-1" d="M79.767,42.12l-9.9,0v-1.83l6.381-9.151H70.036V28.813l9.559,0v1.82l-6.372,9.16h6.545Z" transform="translate(-29.295 -28.811)"/><path class="cls-1" d="M90.471,37.01A5.47,5.47,0,0,1,89.161,40.9a4.755,4.755,0,0,1-3.65,1.4,5.112,5.112,0,0,1-2.585-.641A4.275,4.275,0,0,1,81.2,39.816a6.194,6.194,0,0,1-.6-2.8,5.44,5.44,0,0,1,1.3-3.878,4.78,4.78,0,0,1,3.66-1.385,5.139,5.139,0,0,1,2.585.637,4.254,4.254,0,0,1,1.721,1.83A6.137,6.137,0,0,1,90.471,37.01Zm-7.037,0a4.272,4.272,0,0,0,.5,2.285,1.774,1.774,0,0,0,1.616.773,1.746,1.746,0,0,0,1.6-.77,4.334,4.334,0,0,0,.487-2.29,4.2,4.2,0,0,0-.492-2.267,2.09,2.09,0,0,0-3.213,0A4.2,4.2,0,0,0,83.435,37.012Z" transform="translate(-29.295 -28.811)"/><path class="cls-1" d="M98,31.747a4.471,4.471,0,0,1,.938.082l-.209,2.6a3.2,3.2,0,0,0-.819-.09,2.946,2.946,0,0,0-2.071.683,2.468,2.468,0,0,0-.742,1.912v5.18H92.318V31.939h2.1l.41,1.712h.137a3.826,3.826,0,0,1,1.279-1.38A3.153,3.153,0,0,1,98,31.747Z" transform="translate(-29.295 -28.811)"/><path class="cls-1" d="M109.194,31.935v1.411l-1.593.41a2.777,2.777,0,0,1,.437,1.529,3.089,3.089,0,0,1-1.142,2.554,4.949,4.949,0,0,1-3.172.916l-.5-.027-.41-.046a.925.925,0,0,0-.428.729q0,.6,1.529.6h1.73a3.942,3.942,0,0,1,2.553.719,2.569,2.569,0,0,1,.878,2.112,3.133,3.133,0,0,1-1.488,2.768,7.752,7.752,0,0,1-4.274.984,5.913,5.913,0,0,1-3.254-.741,2.355,2.355,0,0,1-1.124-2.08,2.179,2.179,0,0,1,.574-1.539,3.265,3.265,0,0,1,1.684-.883,1.849,1.849,0,0,1-.746-.6,1.466,1.466,0,0,1,.018-1.848,3.9,3.9,0,0,1,.974-.76,2.731,2.731,0,0,1-1.27-1.111,3.377,3.377,0,0,1-.469-1.8,3.179,3.179,0,0,1,1.083-2.576,4.685,4.685,0,0,1,3.1-.911,8.022,8.022,0,0,1,1.015.077q.587.077.751.114Zm-7.856,11.618a1.006,1.006,0,0,0,.551.9,3.032,3.032,0,0,0,1.543.327,5.458,5.458,0,0,0,2.34-.41,1.248,1.248,0,0,0,.846-1.119.793.793,0,0,0-.5-.792,4.094,4.094,0,0,0-1.548-.218h-1.438a2.178,2.178,0,0,0-1.279.36A1.11,1.11,0,0,0,101.338,43.553Zm1.01-8.284a2.07,2.07,0,0,0,.378,1.311,1.37,1.37,0,0,0,1.152.482,1.344,1.344,0,0,0,1.147-.482,2.128,2.128,0,0,0,.364-1.311q0-1.839-1.511-1.839Q102.348,33.429,102.348,35.269Z" transform="translate(-29.295 -28.811)"/><path class="cls-4" d="M69.7,70.348V67.51h.771l.729,2.037.717-2.037h.775v2.838H72.16l.015-2.274-.794,2.274h-.376l-.8-2.274.015,2.274Z" transform="translate(-29.295 -28.811)"/><path class="cls-4" d="M73.995,70.348h-.621l1.15-2.838h.5l1.124,2.838h-.625l-.207-.556H74.2Zm.756-2.163-.4,1.151h.817Z" transform="translate(-29.295 -28.811)"/><path class="cls-4" d="M77.218,70.348H76.6l1.151-2.838h.5l1.123,2.838h-.625l-.207-.556h-1.12Zm.756-2.163-.4,1.151h.817Z" transform="translate(-29.295 -28.811)"/><path class="cls-4" d="M80.127,67.51H80.7v1.315l.94-1.315h.6l-1.028,1.415,1.131,1.423h-.7L80.7,69.075v1.273h-.571Z" transform="translate(-29.295 -28.811)"/><path class="cls-4" d="M83.369,68.013h-.614v-.5H84.55v.5h-.61v2.335h-.571Z" transform="translate(-29.295 -28.811)"/><path class="cls-4" d="M86.772,70.348V67.51h.771l.729,2.037.717-2.037h.775v2.838h-.529l.015-2.274-.794,2.274H88.08l-.8-2.274.015,2.274Z" transform="translate(-29.295 -28.811)"/><path class="cls-4" d="M90.686,67.51h1.592v.5h-1.02v.645h1v.5h-1v.687h1.02v.5H90.686Z" transform="translate(-29.295 -28.811)"/><path class="cls-4" d="M93.115,67.51h1.592v.5h-1.02v.645h1v.5h-1v.687h1.02v.5H93.115Z" transform="translate(-29.295 -28.811)"/><path class="cls-4" d="M95.533,67.51h.859a1.447,1.447,0,0,1,.848.18,1,1,0,0,1,.207,1.3.741.741,0,0,1-.468.307l.633,1.051h-.6l-.763-1.319h.111a.883.883,0,0,0,.51-.1.532.532,0,0,0,.18-.415.488.488,0,0,0-.211-.41.761.761,0,0,0-.4-.088H96.1v2.335h-.571Z" transform="translate(-29.295 -28.811)"/><path class="cls-4" d="M99.876,70.348V67.51h.771l.729,2.037.717-2.037h.775v2.838h-.529l.015-2.274-.794,2.274h-.376l-.8-2.274.015,2.274Z" transform="translate(-29.295 -28.811)"/><path class="cls-4" d="M103.663,68.952a1.49,1.49,0,1,1,1.484,1.45,1.46,1.46,0,0,1-1.484-1.45Zm.571-.023a.92.92,0,1,0,.92-.97.932.932,0,0,0-.92.97Z" transform="translate(-29.295 -28.811)"/><path class="cls-4" d="M109.56,68.381a.946.946,0,0,0-.211-.234.86.86,0,0,0-.545-.188.971.971,0,0,0,0,1.94.936.936,0,0,0,.564-.172.75.75,0,0,0,.291-.43H108.6v-.46h1.718a1.684,1.684,0,0,1-.127.714,1.51,1.51,0,0,1-1.384.851,1.473,1.473,0,1,1,1.4-2.021Z" transform="translate(-29.295 -28.811)"/><path class="cls-4" d="M111.1,67.51h1.591v.5h-1.02v.645h1v.5h-1v.687h1.02v.5H111.1Z" transform="translate(-29.295 -28.811)"/><path class="cls-4" d="M113.54,67.51h.571v2.335h.932v.5h-1.5Z" transform="translate(-29.295 -28.811)"/><path class="cls-4" d="M115.719,67.51h.571v2.838h-.571Z" transform="translate(-29.295 -28.811)"/><path class="cls-4" d="M118.769,69.3a1.561,1.561,0,0,1-.088.625.828.828,0,0,1-.284.315.982.982,0,0,1-.541.161.86.86,0,0,1-.874-.686,1.376,1.376,0,0,1-.019-.188h.61a.527.527,0,0,0,.007.077c.042.184.157.3.3.3a.277.277,0,0,0,.276-.184.762.762,0,0,0,.038-.276V67.51h.571Z" transform="translate(-29.295 -28.811)"/><path class="cls-4" d="M119.759,67.51h.571v1.315l.94-1.315h.6l-1.028,1.415,1.132,1.423h-.7l-.947-1.273v1.273h-.571Z" transform="translate(-29.295 -28.811)"/></svg>